<?xml version="1.0" encoding="UTF-8"?><svg id="a" xmlns="http://www.w3.org/2000/svg" viewBox="0 0 150 150"><defs><style>.b{fill:#fff;}</style></defs><path class="b" d="M75,150C33.64,150,0,116.36,0,75S33.64,0,75,0s75,33.64,75,75-33.64,75-75,75Zm0-145.73C36,4.27,4.27,36,4.27,75s31.73,70.73,70.73,70.73,70.73-31.73,70.73-70.73S114,4.27,75,4.27Z"/><path class="b" d="M17.71,101.7h114.2c-10.09,21.4-31.87,36.2-57.09,36.2s-47.01-14.8-57.1-36.2Z"/><path class="b" d="M131.91,47.87H17.71C27.8,26.47,49.58,11.66,74.82,11.66s47,14.8,57.09,36.2Z"/><g><path class="b" d="M6,77.32v-5.3l24.23-16.02v6.83l-18.01,11.71v.26l18.01,11.71v6.83L6,77.32Z"/><path class="b" d="M40.48,90.52l4.31-5.1c3.16,2.84,7.27,4.74,11.63,4.74,4.85,0,7.42-2.13,7.42-5.05,0-3.71-2.85-4.71-6.92-6.42l-5.73-2.49c-4.38-1.7-8.9-4.94-8.9-11.06,0-6.63,5.97-11.75,14.48-11.75,5.11,0,9.94,1.99,13.35,5.31l-3.79,4.71c-2.84-2.26-5.72-3.56-9.91-3.56-3.96,0-6.62,1.78-6.62,4.86,0,3.24,3.33,4.43,7.11,5.88l5.47,2.38c5.31,2.04,9.06,5.21,9.06,11.23,0,6.77-5.7,12.42-15.45,12.42-5.86,0-11.41-2.24-15.5-6.09Z"/><path class="b" d="M82.65,54.16h7.37v35.45h19.56v6.24h-26.93V54.16Z"/><path class="b" d="M119.77,86.51l18.01-11.71v-.26l-18.01-11.71v-6.83l24.23,16.02v5.3l-24.23,16.02v-6.83Z"/></g></svg>